<svg width="1152" height="882" viewBox="0 0 1152 882" fill="none" xmlns="http://www.w3.org/2000/svg">
<path d="M684 717.27H468V864H684V717.27Z" fill="#414042"/>
<path d="M369.8 846H782.2C784.799 846 787.292 847.033 789.13 848.87C790.967 850.708 792 853.201 792 855.8V882H360V855.8C360 853.201 361.033 850.708 362.87 848.87C364.708 847.033 367.201 846 369.8 846V846Z" fill="#414042"/>
<path opacity="0.6" d="M684 720H468V756H684V720Z" fill="black"/>
<path d="M0 576H1152V690C1152 697.956 1148.84 705.587 1143.21 711.213C1137.59 716.839 1129.96 720 1122 720H30C22.0435 720 14.4129 716.839 8.7868 711.213C3.16071 705.587 0 697.956 0 690L0 576Z" fill="#414042"/>
<path d="M30 0H1122C1129.96 0 1137.59 3.16071 1143.21 8.7868C1148.84 14.4129 1152 22.0435 1152 30V648H0V30C0 22.0435 3.16071 14.4129 8.7868 8.7868C14.4129 3.16071 22.0435 0 30 0V0Z" fill="#414042"/>
<path d="M1116 36H36V639H1116V36Z" fill="white"/>
<path d="M1116 216H36V459H1116V216Z" fill="#2977C9"/>
<path d="M309.911 269.421H340.966C349.364 269.421 355.81 270.08 360.302 271.398C364.843 272.717 368.236 274.621 370.482 277.111C372.777 279.602 374.315 282.629 375.097 286.193C375.927 289.709 376.342 295.178 376.342 302.6V312.927C376.342 320.495 375.561 326.013 373.998 329.479C372.436 332.946 369.555 335.607 365.355 337.463C361.205 339.318 355.761 340.246 349.022 340.246H340.746V388H309.911V269.421ZM340.746 289.709V319.885C341.625 319.934 342.382 319.958 343.017 319.958C345.849 319.958 347.802 319.274 348.876 317.907C349.999 316.491 350.561 313.586 350.561 309.191V299.45C350.561 295.397 349.926 292.761 348.656 291.54C347.387 290.319 344.75 289.709 340.746 289.709ZM414.794 269.421V388H384.325V269.421H414.794ZM451.928 328.454H424.169V321.936C424.169 314.416 425.023 308.63 426.732 304.577C428.49 300.476 431.981 296.862 437.206 293.737C442.431 290.612 449.218 289.05 457.567 289.05C467.577 289.05 475.121 290.832 480.199 294.396C485.277 297.912 488.329 302.258 489.354 307.434C490.38 312.561 490.893 323.156 490.893 339.221V388H462.108V379.357C460.302 382.824 457.958 385.437 455.077 387.194C452.245 388.903 448.852 389.758 444.896 389.758C439.721 389.758 434.96 388.317 430.614 385.437C426.317 382.507 424.169 376.135 424.169 366.32V358.337C424.169 351.062 425.316 346.105 427.611 343.469C429.906 340.832 435.595 337.756 444.677 334.24C454.394 330.432 459.594 327.868 460.277 326.55C460.961 325.231 461.303 322.546 461.303 318.493C461.303 313.415 460.912 310.119 460.131 308.605C459.398 307.043 458.153 306.262 456.396 306.262C454.394 306.262 453.148 306.921 452.66 308.239C452.172 309.509 451.928 312.854 451.928 318.273V328.454ZM461.303 341.784C456.566 345.251 453.808 348.156 453.026 350.5C452.294 352.844 451.928 356.213 451.928 360.607C451.928 365.637 452.245 368.884 452.88 370.349C453.563 371.813 454.882 372.546 456.835 372.546C458.69 372.546 459.887 371.984 460.424 370.861C461.01 369.689 461.303 366.662 461.303 361.779V341.784ZM563.036 290.808L554.54 361.12C553.222 372.253 552.099 379.846 551.171 383.898C550.292 387.951 548.803 391.296 546.703 393.933C544.604 396.569 541.674 398.498 537.914 399.719C534.203 400.988 528.246 401.623 520.043 401.623H502.099V386.096C506.688 386.096 509.643 385.876 510.961 385.437C512.279 384.948 512.938 383.898 512.938 382.287C512.938 381.506 512.328 378.112 511.107 372.106L494.921 290.808H521.801L531.469 356.359L536.156 290.808H563.036ZM600.023 269.421V364.27H618.773V388H569.188V269.421H600.023ZM655.907 269.421V284.875H625.438V269.421H655.907ZM655.907 290.808V388H625.438V290.808H655.907ZM727.025 321.862H700.805V316.589C700.805 312.097 700.536 309.265 699.999 308.093C699.511 306.872 698.241 306.262 696.19 306.262C694.53 306.262 693.285 306.823 692.455 307.946C691.625 309.021 691.21 310.656 691.21 312.854C691.21 315.832 691.405 318.029 691.796 319.445C692.235 320.812 693.48 322.326 695.531 323.986C697.631 325.646 701.903 328.063 708.349 331.237C716.942 335.437 722.582 339.392 725.268 343.103C727.953 346.813 729.296 352.209 729.296 359.289C729.296 367.199 728.271 373.181 726.22 377.233C724.169 381.237 720.727 384.338 715.893 386.535C711.107 388.684 705.321 389.758 698.534 389.758C691.015 389.758 684.569 388.586 679.198 386.242C673.876 383.898 670.214 380.725 668.212 376.721C666.21 372.717 665.209 366.662 665.209 358.557V353.869H691.43V360.021C691.43 365.246 691.747 368.64 692.382 370.202C693.065 371.765 694.384 372.546 696.337 372.546C698.437 372.546 699.901 372.033 700.731 371.008C701.562 369.934 701.977 367.712 701.977 364.343C701.977 359.704 701.439 356.799 700.365 355.627C699.242 354.455 693.505 350.988 683.153 345.227C674.462 340.344 669.164 335.925 667.26 331.97C665.355 327.966 664.403 323.229 664.403 317.761C664.403 309.997 665.429 304.284 667.479 300.622C669.53 296.911 672.997 294.055 677.88 292.053C682.812 290.051 688.524 289.05 695.019 289.05C701.464 289.05 706.933 289.88 711.425 291.54C715.966 293.151 719.433 295.3 721.825 297.985C724.267 300.671 725.731 303.161 726.22 305.456C726.757 307.751 727.025 311.34 727.025 316.223V321.862ZM768.407 277.844V293.151H776.391V308.532H768.407V360.534C768.407 366.931 768.725 370.495 769.359 371.228C770.043 371.96 772.802 372.326 777.636 372.326V388H765.697C758.959 388 754.149 387.731 751.269 387.194C748.388 386.608 745.849 385.314 743.651 383.312C741.454 381.262 740.087 378.942 739.55 376.354C739.013 373.718 738.744 367.565 738.744 357.897V308.532H732.372V293.151H738.744V277.844H768.407ZM843.334 321.862H817.113V316.589C817.113 312.097 816.845 309.265 816.308 308.093C815.819 306.872 814.55 306.262 812.499 306.262C810.839 306.262 809.594 306.823 808.764 307.946C807.934 309.021 807.519 310.656 807.519 312.854C807.519 315.832 807.714 318.029 808.104 319.445C808.544 320.812 809.789 322.326 811.84 323.986C813.939 325.646 818.212 328.063 824.657 331.237C833.251 335.437 838.891 339.392 841.576 343.103C844.262 346.813 845.604 352.209 845.604 359.289C845.604 367.199 844.579 373.181 842.528 377.233C840.478 381.237 837.035 384.338 832.201 386.535C827.416 388.684 821.63 389.758 814.843 389.758C807.323 389.758 800.878 388.586 795.507 386.242C790.185 383.898 786.522 380.725 784.521 376.721C782.519 372.717 781.518 366.662 781.518 358.557V353.869H807.738V360.021C807.738 365.246 808.056 368.64 808.69 370.202C809.374 371.765 810.692 372.546 812.646 372.546C814.745 372.546 816.21 372.033 817.04 371.008C817.87 369.934 818.285 367.712 818.285 364.343C818.285 359.704 817.748 356.799 816.674 355.627C815.551 354.455 809.813 350.988 799.462 345.227C790.771 340.344 785.473 335.925 783.568 331.97C781.664 327.966 780.712 323.229 780.712 317.761C780.712 309.997 781.737 304.284 783.788 300.622C785.839 296.911 789.306 294.055 794.188 292.053C799.12 290.051 804.833 289.05 811.327 289.05C817.772 289.05 823.241 289.88 827.733 291.54C832.274 293.151 835.741 295.3 838.134 297.985C840.575 300.671 842.04 303.161 842.528 305.456C843.065 307.751 843.334 311.34 843.334 316.223V321.862Z" fill="white"/>
<path d="M666 495H63V513H666V495Z" fill="#E6E7E8"/>
<path d="M666 540H63V558H666V540Z" fill="#E6E7E8"/>
<path d="M666 585H63V603H666V585Z" fill="#E6E7E8"/>
<path d="M1089 495H693V603H1089V495Z" fill="#E6E7E8"/>
<path d="M243 72H63V180H243V72Z" fill="#E6E7E8"/>
<path d="M459 72H270V180H459V72Z" fill="#E6E7E8"/>
<path d="M1089 72H486V90H1089V72Z" fill="#E6E7E8"/>
<path d="M1089 117H486V135H1089V117Z" fill="#E6E7E8"/>
<path d="M1089 162H486V180H1089V162Z" fill="#E6E7E8"/>
</svg>
