<svg xmlns="http://www.w3.org/2000/svg" viewBox="0 0 228.69 172.84"><defs><style>.cls-1{fill:#d79b7f;}.cls-2{fill:#2b0e09;}.cls-3{fill:#b77e67;}.cls-4{fill:#044443;}.cls-5{fill:#8aac91;}.cls-6{fill:#fcfafa;}.cls-7{fill:#493240;}.cls-8{fill:#cd4954;}.cls-9{fill:#10272f;}.cls-10{fill:#230a11;}.cls-11{fill:#eaa16a;}.cls-12{fill:#ed9a80;}.cls-13{fill:#d6bc8e;}.cls-14{fill:#7f3232;}.cls-15{fill:#471d0a;}.cls-16{fill:#e88815;}.cls-17{fill:#f9d7af;}.cls-18{fill:#fdbb41;}.cls-19{fill:#1a2e35;}</style></defs><g id="Layer_2" data-name="Layer 2"><g id="Design"><rect class="cls-1" x="90.06" y="47.72" width="127.53" height="100.61"/><path class="cls-2" d="M90.3,148.3c40-.24,87.55-.49,127.5-.31l-.34.34c.07-16.72.22-59.3.13-75.46l-.07-25.15.28.27c-35.61.13-91.52.26-127.53.22l.49-.49c-.13,29-.23,71.11-.46,100.58Zm-.07.07L90,98.15c-.06-16.78-.21-33.6-.19-50.43a.49.49,0,0,1,.5-.49c36.18.09,91.76,0,127.53.22a.27.27,0,0,1,.27.27L218,72.87c-.08,16,.07,58.95.13,75.46a.33.33,0,0,1-.33.34l-32,.09c-28.38-.08-67.22-.19-95.6-.39Z" transform="translate(-0.21)"/><rect class="cls-3" x="90.06" y="47.72" width="127.53" height="11.74"/><path class="cls-2" d="M90.3,59.42c31-.31,64.91-.52,95.65-.16,7.92.05,23.93,0,31.85,0l-.22.22-.06-11.74.28.27c-40.69.33-86.89.32-127.53-.08l.19-.19-.16,11.7Zm-.07.07-.16-11.77a.19.19,0,0,1,.2-.19l31.88-.23c18.43-.18,45.06-.07,63.77,0l31.88.19a.27.27,0,0,1,.27.27l0,11.74a.22.22,0,0,1-.22.22c-8-.07-24-.07-31.92,0-30.73.36-64.76.15-95.65-.17Z" transform="translate(-0.21)"/><path class="cls-2" d="M156.65,99.67c18.27-.29,37.21-.56,55.41-.26l-.29.29q.27-17.49,0-35l.27.27c-13.34.15-28.16.26-41.58.25l-13.87,0,.49-.49c-.08,8.7-.32,26.23-.45,34.94Zm-.07.07c-.13-8.73-.37-26.29-.45-35a.48.48,0,0,1,.48-.49l13.87,0c13.44,0,28.21.08,41.58.24a.29.29,0,0,1,.28.28c-.08,5.83-.11,11.66-.13,17.49s0,11.65.14,17.48a.28.28,0,0,1-.29.29c-18.22.31-37.23,0-55.48-.25Z" transform="translate(-0.21)"/><path class="cls-2" d="M183,70.48c0,1,1.62,1.89,2.32,1.1a1.58,1.58,0,0,0-.93-2.37A1.41,1.41,0,0,0,183,70.48Zm-.1,0c-.08-1,.19-2.31,1.49-2.33,1.93.1,2.1,2.36,1.2,3.62a1.36,1.36,0,0,1-2.53.09,4.28,4.28,0,0,1-.16-1.38Z" transform="translate(-0.21)"/><path class="cls-2" d="M96.23,99.67c18.27-.29,37.21-.56,55.41-.26l-.29.29q.27-17.49,0-35l.27.27c-13.34.15-28.16.26-41.58.25l-13.86,0,.48-.49c-.08,8.7-.32,26.23-.45,34.94Zm-.07.07c-.13-8.73-.37-26.29-.45-35a.48.48,0,0,1,.48-.49l13.87,0c13.44,0,28.21.08,41.58.24a.29.29,0,0,1,.28.28c-.08,5.83-.11,11.66-.12,17.49s0,11.65.13,17.48a.28.28,0,0,1-.29.29c-18.22.31-37.23,0-55.48-.25Z" transform="translate(-0.21)"/><path class="cls-2" d="M122.53,70.48c0,1,1.62,1.89,2.32,1.1a1.58,1.58,0,0,0-.93-2.37,1.41,1.41,0,0,0-1.39,1.27Zm-.1,0c-.08-1,.19-2.31,1.49-2.33,1.93.1,2.1,2.36,1.2,3.62a1.36,1.36,0,0,1-2.53.09,4.28,4.28,0,0,1-.16-1.38Z" transform="translate(-0.21)"/><path class="cls-2" d="M156.65,140.39c18.27-.29,37.21-.55,55.41-.26l-.29.3q.27-17.49,0-35l.27.28c-13.34.14-28.16.25-41.58.24l-13.87,0,.49-.49c-.08,8.71-.32,26.23-.45,34.94Zm-.07.07c-.13-8.72-.37-26.28-.45-35a.48.48,0,0,1,.48-.49l13.87,0c13.44,0,28.21.09,41.58.25a.28.28,0,0,1,.28.27c-.08,5.83-.11,11.66-.13,17.49s0,11.66.14,17.49a.28.28,0,0,1-.29.29c-18.22.3-37.23,0-55.48-.26Z" transform="translate(-0.21)"/><path class="cls-2" d="M183,111.2c0,1,1.62,1.89,2.32,1.1a1.57,1.57,0,0,0-.93-2.36A1.4,1.4,0,0,0,183,111.2Zm-.1,0c-.08-1,.19-2.31,1.49-2.33,1.93.11,2.1,2.36,1.2,3.62a1.36,1.36,0,0,1-2.53.09,4.25,4.25,0,0,1-.16-1.38Z" transform="translate(-0.21)"/><path class="cls-2" d="M96.23,140.39c18.27-.29,37.21-.55,55.41-.26l-.29.3q.27-17.49,0-35l.27.28c-13.34.14-28.16.25-41.58.24l-13.86,0,.48-.49c-.08,8.71-.32,26.23-.45,34.94Zm-.07.07c-.13-8.72-.37-26.28-.45-35a.48.48,0,0,1,.48-.49l13.87,0c13.44,0,28.21.09,41.58.25a.28.28,0,0,1,.28.27c-.08,5.83-.11,11.66-.12,17.49s0,11.66.13,17.49a.28.28,0,0,1-.29.29c-18.22.3-37.23,0-55.48-.26Z" transform="translate(-0.21)"/><path class="cls-2" d="M122.53,111.2c0,1,1.62,1.89,2.32,1.1a1.57,1.57,0,0,0-.93-2.36,1.4,1.4,0,0,0-1.39,1.26Zm-.1,0c-.08-1,.19-2.31,1.49-2.33,1.93.11,2.1,2.36,1.2,3.62a1.36,1.36,0,0,1-2.53.09,4.25,4.25,0,0,1-.16-1.38Z" transform="translate(-0.21)"/><rect class="cls-4" x="186.46" y="16.23" width="8.26" height="31.49"/><path class="cls-2" d="M186.71,47.68c2.86-.12,5.55-.25,8.22-.31l-.35.35c0-2.64-.13-9.26-.06-11.81.22-6.52.36-13.17.14-19.68l.27.27c-2.75.09-5.51.14-8.26.18l.45-.45.07,7.77c0,7-.25,16.65-.48,23.68Zm-.08.08c-.25-7-.48-16.56-.48-23.56l.07-8a.44.44,0,0,1,.45-.45c2.75,0,5.51.09,8.26.18a.27.27,0,0,1,.28.27c-.23,6.51-.08,13.16.14,19.68.06,2.53,0,9.21-.07,11.81a.33.33,0,0,1-.35.35c-2.84-.06-5.65-.19-8.3-.31Z" transform="translate(-0.21)"/><rect class="cls-5" x="186.46" y="22.11" width="8.26" height="15.61"/><path class="cls-2" d="M186.71,37.68c2.92-.19,5.57-.37,8.22-.4l-.43.43c0-1.3,0-2.6,0-3.9a103.87,103.87,0,0,0,.14-11.7l.27.27c-2.75.15-5.51.19-8.26.23l.51-.5c.1,5.23-.19,10.23-.47,15.57Zm-.08.07c-.3-5.07-.57-10.48-.47-15.66a.5.5,0,0,1,.51-.49c2.76,0,5.53.08,8.29.23a.27.27,0,0,1,.25.28c-.12,2.6-.17,5.2-.05,7.8.11,2.29.29,5.54.21,7.8a.44.44,0,0,1-.44.44c-2.85,0-5.72-.21-8.3-.4Z" transform="translate(-0.21)"/><path class="cls-6" d="M189.38,42.07a1.42,1.42,0,1,0,1.42-1.42A1.43,1.43,0,0,0,189.38,42.07Z" transform="translate(-0.21)"/><path class="cls-2" d="M189.4,42.07c0,1.52,2.89,1.71,2.69,0a1.36,1.36,0,0,0-2.69,0Zm-.05,0a1.51,1.51,0,1,1,3,0c-.26,2-3,2.28-3,0Z" transform="translate(-0.21)"/><rect class="cls-5" x="176.27" y="16.23" width="8.26" height="31.49"/><path class="cls-2" d="M176.51,47.68c2.87-.12,5.56-.25,8.23-.31l-.35.35c0-2.64-.13-9.26-.06-11.81.21-6.52.36-13.17.14-19.68l.27.27c-2.75.09-5.51.14-8.26.18l.45-.45L177,24c0,7-.25,16.65-.49,23.68Zm-.07.08c-.25-7-.48-16.56-.48-23.56l.07-8a.44.44,0,0,1,.45-.45c2.75,0,5.51.09,8.26.18a.27.27,0,0,1,.28.27c-.23,6.51-.08,13.16.13,19.68.07,2.53,0,9.21-.06,11.81a.33.33,0,0,1-.35.35c-2.84-.06-5.65-.19-8.3-.31Z" transform="translate(-0.21)"/><rect class="cls-7" x="176.27" y="22.11" width="8.26" height="15.61"/><path class="cls-2" d="M176.51,37.68c2.93-.19,5.58-.37,8.23-.4l-.43.43c0-1.3,0-2.6,0-3.9a103.87,103.87,0,0,0,.14-11.7l.27.27c-2.75.15-5.51.19-8.26.23l.51-.5c.1,5.23-.19,10.23-.48,15.57Zm-.07.07c-.3-5.07-.57-10.48-.47-15.66a.5.5,0,0,1,.51-.49c2.76,0,5.53.08,8.29.23a.27.27,0,0,1,.25.28c-.12,2.6-.18,5.2-.06,7.8.12,2.29.29,5.54.22,7.8a.44.44,0,0,1-.44.44c-2.85,0-5.72-.21-8.3-.4Z" transform="translate(-0.21)"/><path class="cls-6" d="M179.19,42.07a1.42,1.42,0,1,0,1.42-1.42A1.42,1.42,0,0,0,179.19,42.07Z" transform="translate(-0.21)"/><path class="cls-2" d="M179.21,42.07c0,1.52,2.89,1.71,2.69,0a1.36,1.36,0,0,0-2.69,0Zm-.05,0a1.51,1.51,0,1,1,3,0c-.26,2-3,2.28-3,0Z" transform="translate(-0.21)"/><rect class="cls-8" x="154.08" y="27.38" width="31.49" height="8.26" transform="translate(110.75 193.89) rotate(-80.58)"/><path class="cls-2" d="M163.22,46.34c2.84.34,5.52.66,8.16,1l-.4.29c.39-2.61,1.39-9.16,1.87-11.66,1.28-6.4,2.52-12.93,3.36-19.39l.22.31c-2.73-.36-5.45-.76-8.18-1.17l.52-.37-1.2,7.68c-1.16,6.93-3,16.38-4.35,23.28Zm-.09.06c.9-6.94,2.24-16.41,3.38-23.32l1.37-7.86a.45.45,0,0,1,.52-.37c2.72.5,5.43,1,8.14,1.54a.26.26,0,0,1,.21.31c-1.29,6.39-2.23,13-3.08,19.44-.35,2.5-1.53,9.08-2,11.64a.34.34,0,0,1-.4.29c-2.79-.53-5.54-1.12-8.14-1.67Z" transform="translate(-0.21)"/><rect class="cls-5" x="162.36" y="25.34" width="15.61" height="8.26" transform="translate(113.04 192.52) rotate(-80.58)"/><path class="cls-2" d="M164.85,36.47c2.92.29,5.56.55,8.19,1l-.5.36c.19-1.29.4-2.57.66-3.85a105.27,105.27,0,0,0,2.05-11.52l.22.31c-2.74-.3-5.46-.71-8.19-1.12l.59-.42c-.76,5.18-1.86,10.07-3,15.29Zm-.08.05c.53-5.05,1.15-10.43,2.1-15.52a.5.5,0,0,1,.58-.4c2.72.49,5.44,1,8.14,1.59a.26.26,0,0,1,.2.31c-.54,2.54-1,5.1-1.33,7.69-.26,2.27-.62,5.51-1.07,7.73a.43.43,0,0,1-.5.36c-2.81-.5-5.6-1.15-8.12-1.76Z" transform="translate(-0.21)"/><path class="cls-6" d="M166.77,41.24a1.42,1.42,0,1,0,1.64-1.17A1.43,1.43,0,0,0,166.77,41.24Z" transform="translate(-0.21)"/><path class="cls-2" d="M166.8,41.25c-.21,1.5,2.56,2.15,2.64.43a1.35,1.35,0,0,0-2.64-.43Zm-.05,0a1.51,1.51,0,1,1,3,.49c-.59,2-3.35,1.75-3-.49Z" transform="translate(-0.21)"/><path class="cls-9" d="M133.6,152.48s-.35-4.24,4.7-10,5.76,2.74,15.38,4,14.56,10.13,12.22,14c-6.19,3.81-9.62-1.23-14.64-.11s-13.1-.1-13.1-.1Z" transform="translate(-0.21)"/><path class="cls-2" d="M133.55,152.49c-.07-4.3,2.47-8.15,5.35-11.17,2.06-2.06,4.16-1.16,6,.49a21.85,21.85,0,0,0,5.11,3.37c1.88.88,4,1,6,1.58a16,16,0,0,1,9.73,7.56c1,1.91,1.73,4.5.39,6.46a9.17,9.17,0,0,1-7.11,1.33c-2.68-.57-5-1.84-7.55-1.3-4.41.86-9,.41-13.37-.25a.35.35,0,0,1-.24-.17q-2.21-3.94-4.31-7.9Zm.1,0q2.46,3.81,4.82,7.58l-.25-.17a45.58,45.58,0,0,0,14-.21c2.48-.23,4.73,1,7,1.49a8.29,8.29,0,0,0,3.32.14,10.48,10.48,0,0,0,3.14-1.21l-.14.14c1-1.7.48-3.93-.31-5.65a14.19,14.19,0,0,0-9.33-7.45c-2-.52-4.17-.5-6.14-1.32a18.75,18.75,0,0,1-5.4-3.3,7.45,7.45,0,0,0-2.48-1.49c-1.93-.36-3.34,1.85-4.49,3.17-1.88,2.37-3.53,5.21-3.75,8.28Z" transform="translate(-0.21)"/><path class="cls-10" d="M51.21,147.64h0a17.8,17.8,0,0,0,1,3.66c1.92,5.14,12.87,9.41,12.87,9.41l73.42-.63a9.78,9.78,0,0,0,0-4.83,10.07,10.07,0,0,0-4-5.64L128,146.39l25.9-37.71c.21,3.32,2.52,8.44,6.36,14.13.58.85,1.26,1.88,2.2,3.16a96.32,96.32,0,0,0,13.3,14.4,131.17,131.17,0,0,0,17.51,13.27,8.8,8.8,0,0,0,12.89-.81c-1.59-3.12-3.94-7.63-6.91-13-4.94-8.89-8.51-14.75-11-18.72-5.81-9.13-20.41-34-23.52-37.36-7.2-7.89-18-2.63-25.88,4s-18,19.09-18,19.09l-3.32,8.3L102.68,126.4,88,127.5c-10.79.14-26.7,5.54-32.1,8.72C51.7,138.7,50.56,143.23,51.21,147.64Z" transform="translate(-0.21)"/><path class="cls-2" d="M51.26,147.63a13.89,13.89,0,0,0,1.53,4.73c2.87,4.08,8,6.35,12.25,8.26l73.43-1L138,160a9.23,9.23,0,0,0-.31-5.62,10,10,0,0,0-3.47-4.39l-6.44-3.24a.38.38,0,0,1-.14-.56l26-37.63a.24.24,0,0,1,.43.12c.58,5,3.42,9.55,6.08,13.75,8.41,12.76,20.43,22.82,33.19,31a8.64,8.64,0,0,0,12.54-.78l0,.31c-10.36-20.17-22.83-39.14-34.61-58.48-1.5-2.4-3-4.8-4.58-7.14-1.67-2.65-3.68-5.08-6.62-6.27C150,77.53,139,87.76,132.44,94.51c-3.79,3.86-8,8.86-11.18,12.55l-3.37,8.29a.42.42,0,0,1-.14.18l-14.86,11.13a.45.45,0,0,1-.18.07l-15.31,1c-10.17.53-20.21,3.45-29.5,7.54-5.16,2-7.53,7-6.64,12.32Zm-.1,0c-.92-5.42,1.4-10.47,6.64-12.54a85.3,85.3,0,0,1,29.57-7.83l15.29-1.21-.18.07c0,.12,15.34-11.89,14.6-11.11l3.28-8.32c8.31-9.81,24.66-30.65,39-26.85,3.6,1,6.22,3.92,8.1,7,1.58,2.37,3.09,4.77,4.59,7.18,11.69,19.47,24.62,38.6,34.31,59a9.19,9.19,0,0,1-13.25.83C178.28,144.16,164.33,131.9,156,116a21.7,21.7,0,0,1-2.37-7.32l.43.12L128.31,146.6l-.14-.56,6.45,3.21,0,0a10.18,10.18,0,0,1,4.23,10.92.45.45,0,0,1-.43.34l-73.42.28c-4.54-2-9.42-4.24-12.37-8.39a13.79,13.79,0,0,1-1.52-4.78Z" transform="translate(-0.21)"/><path class="cls-11" d="M111.22,44.36s14.36-1.11,19.19,3.72-4,66.88-8.06,72.52-37.87,12.09-41.9,9.67S68.34,56.22,74,52.55,91.22,42.25,111.22,44.36Z" transform="translate(-0.21)"/><path class="cls-2" d="M111.22,44.31a57.45,57.45,0,0,1,8,0c3.92.39,8.21.9,11.3,3.58.95,1.08,1.05,2.52,1.28,3.85a63.12,63.12,0,0,1,.32,8,256.81,256.81,0,0,1-3,31.81c-1.51,9.18-2.87,18.47-5.75,27.35a5.59,5.59,0,0,1-2.45,3.17,33.16,33.16,0,0,1-7.31,3.25,125.42,125.42,0,0,1-23.37,5.25,40.7,40.7,0,0,1-8,.42,4.15,4.15,0,0,1-2.08-.61c-1.34-1.7-1.56-3.78-2.15-5.76-1.23-5.21-2.08-10.47-2.84-15.74-2.12-15.84-3.91-31.8-3.46-47.8.21-2.73.21-5.43,1.36-8,.19-.63,1.07-1.11,1.61-1.45,10.81-6.85,24-8.78,36.59-7.36Zm0,.1C99.37,43.15,87,45,76.74,51.3c-.55.34-2,1.24-2.51,1.59-1,1.08-1.1,2.83-1.35,4.34C71.77,74.43,74,91.72,76.05,108.8c.75,5.25,1.51,10.52,2.66,15.69.47,1.8.8,3.93,1.85,5.42a4.06,4.06,0,0,0,1.7.48c6.53.83,39.64-4.51,40.73-11.57,2.8-8.86,3.9-18.18,5.29-27.34,1.44-10.53,2.72-21.1,3.19-31.71a60.08,60.08,0,0,0-.13-7.94,7.25,7.25,0,0,0-1.08-3.65c-3-2.7-7.21-3.26-11.07-3.67a57.29,57.29,0,0,0-8-.1Z" transform="translate(-0.21)"/><path class="cls-2" d="M128,146.44c-6.33-1.56-12.53-3.37-18.93-4.52a71.23,71.23,0,0,0-30.31,3l-.78.23c-.15,0-.25,0-.25.14a.13.13,0,0,0,.18.15c.06,0,.09.07,0,.09-.28.15-.55-.32-.25-.49.09-.06.82-.36.94-.42,7.94-3.75,17-4.55,25.62-3.57,3.77.47,7.58.81,11.33,1.46a51.17,51.17,0,0,1,12.41,4Z" transform="translate(-0.21)"/><path class="cls-12" d="M100.16,41.2l-1.5,8.65s2.6,6.39,10.09,1.75l1.74-10.09Z" transform="translate(-0.21)"/><path class="cls-2" d="M100.19,41.24c-.28,3-.58,5.79-1.09,8.68l0-.24c2,4.25,6.06,4.16,9.52,1.68l-.12.19c.39-3.39.91-6.77,1.49-10.13l.51.62c-3.46-.14-6.77-.45-10.29-.8Zm-.06-.07c3.36-.17,6.94-.26,10.38-.19a.53.53,0,0,1,.52.54c-.27,1.71-.62,3.41-1,5.11s-.68,3.37-1.07,5c.06.15-1.35.72-1.47.82-3.26,1.64-7.67,1.21-9.29-2.48a66.87,66.87,0,0,1,1.88-8.85Z" transform="translate(-0.21)"/><path class="cls-11" d="M127.5,46.21S159.42,61,162.64,72.26s-32.23,26.59-32.23,26.59-7.25-4.84-5.64-10.48l17.73-13.7-11.25-5.34" transform="translate(-0.21)"/><path class="cls-2" d="M127.52,46.16a145.23,145.23,0,0,1,19.53,10.35c4.66,3,9.27,6.25,12.87,10.52,4.85,5.6,3.63,9.75-1.29,14.69-8,7.67-18,12.91-28,17.58a.46.46,0,0,1-.47,0,17.92,17.92,0,0,1-2.5-2.08c-2.34-2.25-4.61-5.94-3.19-9.21,5.11-4,12.6-9.6,17.85-13.54l.06.54c-3.72-1.83-7.43-3.7-11.14-5.58,3.57,1.25,7.69,3.41,11.42,5a.32.32,0,0,1,.05.55c-5.16,4.1-12.45,9.89-17.6,13.85l.18-.27c-1,4.09,2.38,7.68,5.41,9.93l-.46,0c7.89-3.67,35.28-15.79,32.07-26.39-1.29-3.4-4.14-6-6.83-8.31a97.71,97.71,0,0,0-8.86-6.49c-6-4-13-7.6-19.08-11.05Z" transform="translate(-0.21)"/><path class="cls-13" d="M115.4,67.9s9,1.18,13.5,3.65a47.94,47.94,0,0,1,8.92,6.88A25,25,0,0,1,147,73.3a12.53,12.53,0,0,1,9,.67l-9,3.12s9-2.4,11.11-.92l-21.58,5.48Z" transform="translate(-0.21)"/><path class="cls-2" d="M115.35,67.88c6.34.58,12.91,2,17.93,6.08a46.59,46.59,0,0,1,4.84,4.16h-.6c3.81-3.22,8.64-5.71,13.73-5.5a12,12,0,0,1,4.85,1.23.16.16,0,0,1,0,.28c-3,1-6,2.1-8.94,3.2l-.14-.46a40.61,40.61,0,0,1,8.41-1.55,5.7,5.7,0,0,1,3,.51.41.41,0,0,1-.14.76l-10.76,2.83c-3.59,1-7.2,1.82-10.79,2.73a.53.53,0,0,1-.41-.06c-7.05-4.58-14-9.61-21-14.2Zm.09,0c7.2,4.6,14.35,8.74,21.43,13.32l-.4-.07c6.23-1.63,15.24-3.86,21.6-5.4l-.14.76a5.16,5.16,0,0,0-2.5-.44,41.7,41.7,0,0,0-8.31,1.24.24.24,0,1,1-.14-.45c3-1,6-2,9-3l0,.28a12.44,12.44,0,0,0-9.51-.34,25.59,25.59,0,0,0-8.33,5,.46.46,0,0,1-.6,0c-3-2.81-6.25-5.68-10-7.45s-8-2.48-12.07-3.38Z" transform="translate(-0.21)"/><path class="cls-14" d="M158.45,75.9l-8.1,19.75q-2.5,8.34-5,16.67c-1.08.08-17.79,1.31-19.25,1.53l-.75.12c-1.12.19-1.82.29-1.82.29l-18.26-4.53-3.44-.21-1.94-.38,5.37-17.87,7.46-24.73s14,6.58,23.89,15.12l.87-.23.8-.21Z" transform="translate(-0.21)"/><path class="cls-2" d="M158.48,75.87c-1.9,4.91-5.88,15.12-7.77,19.89l-2.47,8.35c-.83,2.78-1.63,5.56-2.49,8.34a.48.48,0,0,1-.39.31c-3.64.27-7.27.56-10.91.79-3.16.25-7.82.39-10.91.93-5.39-1.37-13-3.29-18.33-4.58.14,0-3.43-.2-3.42-.18h0l-1.94-.36a.22.22,0,0,1-.17-.28C102.73,98.42,109,77,112.2,66.39a.53.53,0,0,1,.73-.33A124.75,124.75,0,0,1,131.25,77q2.88,2.1,5.58,4.43l-.33-.07c5.46-1.37,16.51-4.11,22-5.44Zm-.07.07c-5.42,1.54-16.3,4.57-21.73,6.07a.36.36,0,0,1-.33-.08,95.44,95.44,0,0,0-11.51-8.12A140,140,0,0,0,112.48,67l.73-.32C110,77.31,103.4,98.62,100.08,109.2l-.17-.27,1.91.39,3.47.23c5.25,1.38,12.92,3.19,18.28,4.49a42.52,42.52,0,0,1,5.34-.71c5.29-.5,11.12-1,16.38-1.45l-.38.31c1.46-4.82,3.57-11.77,5.08-16.65,0,0,8.4-19.57,8.42-19.6Z" transform="translate(-0.21)"/><path class="cls-10" d="M138.26,81.22l-12.18,32.63-.75.12,12.13-32.54Z" transform="translate(-0.21)"/><path class="cls-2" d="M138.3,81.19c-2.57,7.69-5.88,17-9,24.52-1.08,2.73-2,5.46-3,8.23a.22.22,0,0,1-.18.16l-.77.14a.27.27,0,0,1-.3-.36c2.79-8.23,5.73-16.4,9-24.46,1.07-2.69,2.17-5.36,3.32-8,.25-.17.66-.13.93-.21Zm-.08.06-.74.27c-.63,2.41-1.81,5.55-2.68,8.19-2.82,8.21-5.94,16.31-9.22,24.36l-.3-.37.76-.1-.19.16c1.08-2.67,2.14-5.37,3.1-8.08,2.54-7.69,6.19-16.92,9.27-24.43Z" transform="translate(-0.21)"/><path class="cls-12" d="M102.21,107.71s10.47-2.42,16.12-2.42-4.84,3.23-4.84,3.23a31.14,31.14,0,0,0,7.25,4c4,1.56,6.32,1.5,6.45,2.42.21,1.46-5.21,4.72-11.28,4.84-9.29.17-18.14-7-18.53-7.26h0Z" transform="translate(-0.21)"/><path class="cls-2" d="M102.19,107.67a82.56,82.56,0,0,1,12.43-2.55c1.77-.14,3.56-.53,5.33-.07.28.09.6.49.43.82a1.16,1.16,0,0,1-.4.5,26.82,26.82,0,0,1-6.41,2.41l.08-.48a28.58,28.58,0,0,0,12.22,5.57c.55.18,1.09.22,1.49.77.77,2.38-5.61,4.73-7.42,5.1-8.16,2.07-16.49-2-22.76-7a.29.29,0,0,1-.05-.41c1.68-1.61,3.39-3.16,5.06-4.69Zm0,.08c-1.56,1.7-3.09,3.38-4.64,5l-.07-.49c6.45,4.4,14.25,8.34,22.21,6.57a15.28,15.28,0,0,0,6.64-3c.33-.31.61-.74.51-1s-.7-.43-1.15-.58a38.05,38.05,0,0,1-12.4-5.59.28.28,0,0,1,.08-.49,30.57,30.57,0,0,0,6.15-2.65v.11c0,.11.12.17,0,.14-5.52-.41-11.88,1.15-17.38,1.9Z" transform="translate(-0.21)"/><path class="cls-9" d="M205.62,151.87a88.34,88.34,0,0,0,10.23,5c7.19,2.95,11.82,3.73,12.55,6.76.38,1.55.17,4-1.24,4.27-10.59,1.87-21.76.5-32.74-.13a6.44,6.44,0,0,1-3-2.24c-2-2.89-1.27-7.71,2.11-11.83a11.54,11.54,0,0,0,4.6.91A12.29,12.29,0,0,0,205.62,151.87Z" transform="translate(-0.21)"/><path class="cls-2" d="M205.62,151.82a120.72,120.72,0,0,0,14.62,6.28c2.52,1,5.17,1.63,7.32,3.43a4.55,4.55,0,0,1,1.3,3.93c-.08,1-.43,2.42-1.61,2.66a105.44,105.44,0,0,1-16.94.92c-5.38-.09-10.75-.46-16.09-.8-6.48-2.37-4.81-10.72-1-14.8a.39.39,0,0,1,.47-.12,12,12,0,0,0,11.93-1.5Zm0,.1a11.89,11.89,0,0,1-12.25,2.15l.47-.12c-2.32,3-4.17,7.44-2.16,11a5.88,5.88,0,0,0,2.92,2.35l-.16,0c10.56.59,21.21,2.44,31.73.59l1-.18c.89-.27,1-1.38,1.09-2.22.32-2.9-2.2-4.23-4.59-5.12-6.17-2.28-12.53-4.8-18-8.39Z" transform="translate(-0.21)"/><path class="cls-11" d="M73.2,52.92a88.84,88.84,0,0,0-6.44,25c-1,9.73-1.81,16.92,1.61,23.36,7.8,14.7,31.58,14.55,33.84,14.51,0,0,4-4.84,2.42-9.67,0,0-20.15-10.48-23.37-12.09s-2.42-23.37-2.42-23.37" transform="translate(-0.21)"/><path class="cls-2" d="M73.25,52.94c-4.08,10.27-6,21.18-6.75,32.16A40.9,40.9,0,0,0,66.79,96c3.16,15.59,21.76,19.5,35.41,19.34l-.33.16a14.16,14.16,0,0,0,2.27-4.42,8.13,8.13,0,0,0,0-4.81l.25.28Q93.23,100.84,82.15,95l-1-.55a3.2,3.2,0,0,1-1.3-1.81A36.18,36.18,0,0,1,78.6,83.2a114.8,114.8,0,0,1,.25-12.6c.24,3.7-.35,22,3,23.22q11.55,5.82,23,11.83a.46.46,0,0,1,.24.29,9.17,9.17,0,0,1,0,5.39,14.58,14.58,0,0,1-2.5,4.72.44.44,0,0,1-.33.16,59.93,59.93,0,0,1-11-1c-10.61-1.89-22.51-7.56-25-19A37.5,37.5,0,0,1,65.63,85c.76-10.89,2.81-22.55,7.62-32.1Z" transform="translate(-0.21)"/><path class="cls-12" d="M126.09,11.86C133.14,22,128.34,45,116.45,49c-5.12,1.71-10.55-.44-10.91-.59a18.92,18.92,0,0,1-8.46-7.68C90.73,29.22,99.54,10,110.49,6.48a12.83,12.83,0,0,1,15.6,5.38Z" transform="translate(-0.21)"/><path class="cls-2" d="M126.13,11.83c6.53,10.11,3.75,28.42-6.11,35.62-4.34,3.13-10.23,2.9-15,.92a18,18,0,0,1-9.86-11.61C92.83,26.65,97.43,15,105.53,8.65c6.68-5.13,16-4.18,20.6,3.18Zm-.08.06c-4.6-7.18-13.6-7.61-19.94-2.48C100.18,14.17,96.58,21.56,95.59,29c-.61,5,.34,10.39,3.63,14.3,4.66,5.93,14.17,8.49,20.47,3.67,8.76-6.88,12.61-25.65,6.36-35.11Z" transform="translate(-0.21)"/><path class="cls-15" d="M129.37,23.87s-11.65-4.1-17.13-2.79l-1.7-2.32.17,2.84s-4.06,1.23-5.4,2.73,0,3.27-2.5,5.84a94.45,94.45,0,0,1-7.35,6.24,24.32,24.32,0,0,1-3.73-8.3c-1.84-7.78-.06-18.18,4.83-19.64A5.79,5.79,0,0,1,101,9.2c.35-.76,3.38-7,10.19-8.42,6.06-1.29,12.61,1.74,16.1,7.61.42.17,6.53,2.7,7.78,9.09a12.66,12.66,0,0,1-6.29,13.21A51.48,51.48,0,0,0,129.37,23.87Z" transform="translate(-0.21)"/><path class="cls-2" d="M129.33,23.9c-5.45-1.45-11.32-3.4-17-2.45a.38.38,0,0,1-.39-.15L110.22,19l.72-.25.18,2.83a.42.42,0,0,1-.29.42c-2.23.9-5.71,1.62-5.82,4.47a7.15,7.15,0,0,1-2.86,4.92c-2.08,1.87-4.29,3.58-6.52,5.26a.29.29,0,0,1-.41,0c-4.85-7.22-6-17.74-2-25.56,1.71-3.11,4.92-3.84,8-2.15l-.51.17C104.43.86,114.06-2.62,121.89,2.2a17,17,0,0,1,5.85,5.93l-.25-.22c4.47,1.89,8,6.15,8.2,11.11a13.09,13.09,0,0,1-6.79,11.85.19.19,0,0,1-.28-.08,65.9,65.9,0,0,0,.71-6.89Zm.08-.06a44,44,0,0,1-.4,6.88l-.32-.21a13.41,13.41,0,0,0,4.71-4.9c3.61-6.47.36-14-6.29-16.75-1.6-2.17-3.32-4.43-5.77-5.76-7.36-4.56-16.28-1.36-20,6.26a.36.36,0,0,1-.5.17C96,6.7,93.05,10.92,92,15.3c-1.78,7.07-.66,15,3.72,20.94l-.42-.07c2.75-2.32,5.86-4.55,8.09-7.38.83-1.14.61-2.58,1.08-3.91,1.18-2.24,4-2.86,6.14-3.68l-.29.42-.15-2.84a.39.39,0,0,1,.71-.25l1.69,2.33-.4-.15c5.92-.83,11.73,1.24,17.26,3.13Z" transform="translate(-0.21)"/><path class="cls-12" d="M104.65,28.7s-.69-5.05-3.84-4.52c-2.61.45-5.27,8.46-3.11,10.23a2.59,2.59,0,0,0,2.15.28" transform="translate(-0.21)"/><path class="cls-2" d="M104.6,28.71c-.73-1.89-2.18-5.41-4.68-3.89-1.78,1.7-2.21,4.6-2.46,6.9-.15,1.82.27,3.08,2.38,2.92a.05.05,0,0,1,0,.1c-3.73,1.54-3.94-3.39-3-5.71a11.29,11.29,0,0,1,2.8-4.46,2.76,2.76,0,0,1,1.23-.67c2.66-.57,3.89,2.68,3.76,4.8,0,.05-.08.06-.1,0Z" transform="translate(-0.21)"/><path class="cls-16" d="M69.92,172.53h41.45a2.09,2.09,0,0,0,1.94-2.2v-2.59a2.09,2.09,0,0,0-1.94-2.21H69.92a4.42,4.42,0,0,1,1.72,3.36,4.59,4.59,0,0,1-.32,1.82A4,4,0,0,1,69.92,172.53Z" transform="translate(-0.21)"/><path class="cls-2" d="M70,172.52c13.78-.31,26.65-.43,40.2-.14,3.61.32,2.91-2.15,2.9-4.77a1.85,1.85,0,0,0-1.5-1.78c-.4,0-.94,0-1.4,0l-5.75.11-11.5.11c-6.76,0-16.33,0-23-.23l.17-.54c2.3,1.7,2.33,5.71-.12,7.23Zm-.1,0a4.33,4.33,0,0,0-.12-6.77.31.31,0,0,1-.07-.42.3.3,0,0,1,.24-.12c10.61-.29,23.83-.25,34.5-.12l5.75.1c.5,0,.92,0,1.47.05a2.37,2.37,0,0,1,1.88,2.31c0,.72,0,2.18,0,2.9a2.29,2.29,0,0,1-1.85,2.19c-13.93.26-28.06.23-41.76-.12Z" transform="translate(-0.21)"/><path class="cls-17" d="M71.32,170.71H92.9a.86.86,0,0,0,.8-.91v-1.67a.87.87,0,0,0-.8-.92H71.25a4.42,4.42,0,0,1,.39,1.68A4.59,4.59,0,0,1,71.32,170.71Z" transform="translate(-0.21)"/><path class="cls-2" d="M71.36,170.68c7.28-.46,13.7-.35,20.79-.12h.73c.8-.08.62-1,.61-1.62,0-.49.1-1.51-.68-1.42l-.74,0c-6.77.25-14.06.3-20.82-.06l.25-.38a4.3,4.3,0,0,1-.14,3.58Zm-.08.06a4.62,4.62,0,0,0-.28-3.41.27.27,0,0,1,.25-.39c6.75-.35,14-.3,20.82-.05.5,0,1.27-.07,1.6.43s.23,1.1.23,1.61l0,.74a1.07,1.07,0,0,1-1,1.21c-7,.12-14.74.39-21.6-.14Z" transform="translate(-0.21)"/><path class="cls-4" d="M78.65,165.53h31.51a1.58,1.58,0,0,0,1.47-1.67v-2a1.58,1.58,0,0,0-1.47-1.67H78.65a3.17,3.17,0,0,1,1,1.27,3.44,3.44,0,0,1,.3,1.28,3.55,3.55,0,0,1-.24,1.38A3.07,3.07,0,0,1,78.65,165.53Z" transform="translate(-0.21)"/><path class="cls-2" d="M78.7,165.52c9.16-.17,17.34-.55,26.21-.19l4.34,0c.68,0,1.43.12,1.87-.51s.31-1.26.31-2c-.06-.56.08-1.51-.38-1.94-.46-.59-1.13-.4-1.81-.4-9.7.24-20.91.3-30.59,0l.17-.54c1.77,1.31,1.79,4.42-.12,5.55Zm-.09,0a3.27,3.27,0,0,0-.13-5.09.3.3,0,0,1,.16-.54c5-.19,12.37-.22,17.49-.23l8.74.11,4.37.1c.38,0,.69,0,1.13,0a1.87,1.87,0,0,1,1.48,1.82c0,.55,0,1.66,0,2.21a1.77,1.77,0,0,1-1.44,1.7l-5.52,0c-8.6.36-17.92,0-26.23-.18Z" transform="translate(-0.21)"/><path class="cls-17" d="M79.72,164.15h16.4a.65.65,0,0,0,.6-.69v-1.27a.65.65,0,0,0-.6-.7H79.66a3.44,3.44,0,0,1,.3,1.28A3.55,3.55,0,0,1,79.72,164.15Z" transform="translate(-0.21)"/><path class="cls-2" d="M79.76,164.12A122.61,122.61,0,0,1,95.55,164c.23,0,.76.07.89-.21s0-1.11,0-1.56c0-.64-.58-.41-1-.41a139.32,139.32,0,0,1-15.83-.06l.25-.38a3.24,3.24,0,0,1-.15,2.74Zm-.08.06a3.64,3.64,0,0,0-.26-2.58.26.26,0,0,1,.21-.38,138.38,138.38,0,0,1,16.42,0,.94.94,0,0,1,.91,1c0,.28,0,.85,0,1.13a.87.87,0,0,1-.8,1c-5.33.12-11.29.39-16.43-.14Z" transform="translate(-0.21)"/><path class="cls-5" d="M72.5,160.78H104a1.59,1.59,0,0,0,1.47-1.68v-2a1.58,1.58,0,0,0-1.47-1.67H72.5a3.36,3.36,0,0,1,1,1.27A3.26,3.26,0,0,1,73.8,158a3.52,3.52,0,0,1-.24,1.38A3.13,3.13,0,0,1,72.5,160.78Z" transform="translate(-0.21)"/><path class="cls-2" d="M72.54,160.76c9.16-.17,17.34-.55,26.21-.18l4.34,0c.68,0,1.43.12,1.87-.51s.31-1.26.31-2c-.06-.56.08-1.52-.38-2-.45-.59-1.13-.4-1.8-.4-9.7.25-20.92.3-30.59,0l.17-.54c1.76,1.31,1.78,4.43-.13,5.55Zm-.09,0a3.27,3.27,0,0,0-.12-5.09.3.3,0,0,1,.15-.54c5-.19,12.37-.22,17.5-.23l8.74.11,4.37.11c.38,0,.69,0,1.12,0a1.87,1.87,0,0,1,1.48,1.82c0,.55,0,1.66,0,2.21a1.76,1.76,0,0,1-1.44,1.7c-.72,0-4.72,0-5.52.06-8.6.35-17.91,0-26.23-.19Z" transform="translate(-0.21)"/><path class="cls-17" d="M73.56,159.39H90a.66.66,0,0,0,.61-.69v-1.27a.66.66,0,0,0-.61-.7H73.51A3.26,3.26,0,0,1,73.8,158,3.52,3.52,0,0,1,73.56,159.39Z" transform="translate(-0.21)"/><path class="cls-2" d="M73.6,159.36a122.61,122.61,0,0,1,15.79-.12c.23,0,.76.07.9-.2s0-1.12,0-1.57c0-.63-.58-.41-1-.41A136.86,136.86,0,0,1,73.51,157l.24-.38a3.24,3.24,0,0,1-.15,2.74Zm-.08.06a3.61,3.61,0,0,0-.26-2.57.27.27,0,0,1,.21-.39,138.55,138.55,0,0,1,16.43,0,.94.94,0,0,1,.9,1c0,.28,0,.85,0,1.13a.87.87,0,0,1-.8,1c-5.33.12-11.29.39-16.43-.14Z" transform="translate(-0.21)"/><rect class="cls-18" x="33.68" y="85.92" width="2.97" height="67.55" transform="translate(-59.91 38.67) rotate(-33.13)"/><path class="cls-2" d="M52.37,148.85c-9.17-13.32-19.15-28.54-27.82-42.35Q20,99.36,15.26,92.35a.24.24,0,0,1,.06-.32l2.47-1.66a.27.27,0,0,1,.38.08C27.54,104.32,37,118.66,46,132.81c3,4.74,6,9.51,9,14.3a.12.12,0,0,1,0,.17l-2.56,1.57Zm0-.1,2.41-1.68,0,.17c-4.62-6.68-9.63-14.21-14.16-21-7.69-11.68-15.44-23.65-22.88-35.48l.37.08-2.5,1.59.06-.32c3,4.74,6.07,9.47,9.17,14.14,9.23,13.59,18.94,28.58,27.57,42.51Z" transform="translate(-0.21)"/><path class="cls-19" d="M42.64,168.34l7.43.17c.3-4.34-5-8.09-11.86-8.68l.15-6.54-3-.07-.15,6.55c-6.83.33-12.16,3.8-12.07,8.11l16.78.4" transform="translate(-0.21)"/><path class="cls-2" d="M42.64,168.29c2.48-.1,5-.12,7.43-.13l-.35.33c0-4.11-4.21-6.44-7.66-7.57a22.3,22.3,0,0,0-3.89-.85.23.23,0,0,1-.21-.25c.12-2.18.21-4.35.24-6.53l.16.16-3,0,.2-.18,0,6.55a.38.38,0,0,1-.36.37,18.27,18.27,0,0,0-7.43,2c-2.13,1.16-4.13,3.14-4.13,5.68l-.51-.51c5.58.24,11.29.35,16.8.92-5.54.29-11.23.16-16.83.12a.52.52,0,0,1-.51-.51c-.08-3,2.24-5.33,4.71-6.58a18.17,18.17,0,0,1,7.86-1.91l-.36.37.34-6.55a.19.19,0,0,1,.2-.19l3,.1a.15.15,0,0,1,.15.16q-.09,3.27-.06,6.54l-.23-.25a17.7,17.7,0,0,1,7.85,2.17c2.4,1.36,4.59,3.87,4.33,6.81a.33.33,0,0,1-.35.3c-2.48-.12-5-.25-7.42-.47a.05.05,0,0,1,0-.1Z" transform="translate(-0.21)"/><path class="cls-19" d="M6,100.17A35.31,35.31,0,0,0,58.72,146a1.48,1.48,0,0,0,.28-1.89h0a1.48,1.48,0,0,0-2.24-.32A32.35,32.35,0,1,1,23.44,89.18a1.47,1.47,0,0,0,.66-2.12h0a1.5,1.5,0,0,0-1.82-.61,35.55,35.55,0,0,0-15,11.79" transform="translate(-0.21)"/><path class="cls-2" d="M6,100.2C-2,113-.61,130.61,9.45,141.84c11.36,13.61,32.88,16.42,47.12,5.6.74-.53,1.5-1.15,2.17-1.74a1.34,1.34,0,0,0-.51-2.08,1.44,1.44,0,0,0-1.55.39,32.57,32.57,0,0,1-28.42,6.91c-29.73-7.24-34.54-47.12-7.17-61,.47-.23,2.08-.91,2.49-1.17a1.18,1.18,0,0,0-.12-1.91,1.46,1.46,0,0,0-1.52.08A36,36,0,0,0,7.35,98.27c2.41-4,6.76-7.68,11-10.16a21.26,21.26,0,0,1,4.35-2,1.8,1.8,0,0,1,1.88,2.2,2.14,2.14,0,0,1-1.5,1.43l-1.68.79-1.63.91C.9,102.32-1.41,129.56,15.35,143.47c11.49,9.94,29.5,10.18,41.1.27,2.13-1.86,4.31,1.38,1.8,2.8C43.88,158.65,20.88,157,8.79,142.42A35.71,35.71,0,0,1,.71,125.47C-.77,116.9,1,107,6,100.2Z" transform="translate(-0.21)"/><path class="cls-5" d="M44.58,90.76a30,30,0,0,1,14.67,10.15s0,0,0,0a29.55,29.55,0,0,1,6.16,18.83c0,.93-.09,1.85-.19,2.75a28.69,28.69,0,0,1-2.7,9.31A29.61,29.61,0,0,1,9,106.49H9A29.62,29.62,0,0,1,42.81,90.28" transform="translate(-0.21)"/><path class="cls-2" d="M44.6,90.72a29.26,29.26,0,0,1,21,24.49C68,131.52,55.32,147,39.1,148.68c-23.23,2.7-40.53-21.21-30.53-42.41a.49.49,0,0,1,.48-.29l-.47.29a30,30,0,0,1,5.93-8.36,29.69,29.69,0,0,1,28.31-7.68c.06,0,0,.11,0,.09a30,30,0,0,0-19.61,2.35,29.65,29.65,0,0,0-13.68,14A.52.52,0,0,1,9,107l.47-.29a29.41,29.41,0,0,0,29.58,41.62c16.16-1.51,27.9-17.07,25.7-33A29.61,29.61,0,0,0,59,101.15l-.07-.21a.31.31,0,0,0,.31.31l-.26-.13c-3.53-4.83-9.07-8.38-14.38-10.4Z" transform="translate(-0.21)"/><path class="cls-12" d="M46.11,135.5s-3.23,1.77-5.24.09-3.79-4-5.67-2.71a3.2,3.2,0,0,1-5-1.45c-1.86-3.73-.08-9.53-5.57-7,0,0,1.56,3.32-.6,3.89s-7.42,1.66-8.76-2.67c0,0-4.19-1.65-6.93,4.45A29.77,29.77,0,0,1,9,106.49s0,0,0,0c1.7.23,4.74.5,5.57-.43,1.16-1.3,5.76-5,8.38-3a3,3,0,0,1,.6,4.43l2.66.88.78-2.85s7.32-2.19,8.79,1-3,7.11-3.8,8.52a3.82,3.82,0,0,0,3.73,3.17c3.17,0,8.2.29,8.37,5.62S44.27,134.63,46.11,135.5Z" transform="translate(-0.21)"/><path class="cls-2" d="M46.16,135.49c-1.62.95-3.82,1.46-5.41.23-1.39-1-2.62-2.75-4.39-2.92-.56,0-.92.33-1.55.66a3.8,3.8,0,0,1-2,.43,3.74,3.74,0,0,1-3-2.39c-1.17-2.15-.68-4.94-2-6.89-.77-.75-2.11-.13-3,.22l.21-.59c.5,1.27,1.05,2.76,0,4a3.67,3.67,0,0,1-1.92.74,9.2,9.2,0,0,1-5.68-.26,4.63,4.63,0,0,1-2.48-3l.19.21a4.07,4.07,0,0,0-2.06-.13c-2.2.41-3.67,2.43-4.57,4.35a.2.2,0,0,1-.36,0,30.83,30.83,0,0,1,.59-23.81l.56.13a.34.34,0,0,0-.06-.17.29.29,0,0,0-.32-.11l-.1.06c.64-.16,1.93.18,2.74.11,1.23,0,2.48,0,3.22-1a11.8,11.8,0,0,1,5.67-3.23,3.55,3.55,0,0,1,3.5,5.7l-.22-.77,2.65.87-.64.34.78-2.86a.48.48,0,0,1,.35-.35c3.6-1.17,11-1.69,9.54,4.17-.67,2.38-2.62,4.19-4,6.09l0-.3a3.6,3.6,0,0,0,1.77,2.5c1,.51,2.28.26,3.4.4a10.72,10.72,0,0,1,3.62.87c2.55,1.07,3.27,3.85,3.13,6.35l.08,3.6a20.74,20.74,0,0,0,.64,5.33,2.56,2.56,0,0,0,1,1.44Zm-.1,0A2.41,2.41,0,0,1,45,134.11c-1-2.88-.9-6-1.08-9,.19-4.3-2.13-6.29-6.28-6.44-1.24-.11-2.53.17-3.72-.4a4,4,0,0,1-2.29-3.44c.92-1.46,2-2.47,2.89-3.88,3.81-6.29-3-6.22-7.31-4.94l.35-.36-.8,2.85a.5.5,0,0,1-.64.34l-2.65-.9a.49.49,0,0,1-.22-.77,2.51,2.51,0,0,0-.54-3.77c-1.91-1.3-4.72.39-6.42,1.66-.73.47-1.26,1.3-2,1.65a11.79,11.79,0,0,1-5.22,0l.24-.08a.44.44,0,0,1-.12.07.29.29,0,0,1-.33-.11.26.26,0,0,1-.06-.18l.56.13A28.71,28.71,0,0,0,8.54,130H8.18a9.62,9.62,0,0,1,2.68-3.73,5,5,0,0,1,4.54-.94.27.27,0,0,1,.19.21c.94,3.15,4.67,3.22,7.36,2.58l.88-.21c1.49-.34.81-2.33.39-3.35-.23-.59.68-.68,1.13-.91,4.93-1.77,3.74,4.86,5.16,7.5a3.14,3.14,0,0,0,2.4,2.05,3.92,3.92,0,0,0,2.43-.77c2.36-1,4,1.72,5.64,3,1.39,1.24,3.55.7,5.08.06Z" transform="translate(-0.21)"/><path class="cls-12" d="M65.43,119.77c0,.93-.09,1.85-.19,2.75-1.95-2.18-4.18-4.3-4.18-4.3s-3.17.24-3.13-1.81a8.7,8.7,0,0,1,1.84-4.27c-1.82-1.26-6.49-2.81-6.23-5.46s3.08,0,4.85-1.33c.84-.6,1-2.54.88-4.41A29.55,29.55,0,0,1,65.43,119.77Z" transform="translate(-0.21)"/><path class="cls-2" d="M65.48,119.77c-.06.91-.12,1.83-.15,2.76a.1.1,0,0,1-.17,0l-4.37-4.08.3.11c-3.49.29-4.44-1.91-2.81-4.77A10.88,10.88,0,0,1,59.55,112l.06.41c-2.08-1.69-7.31-3-6-6.59.51-.9,1.66-.58,2.45-.49,3.18.67,2.8-2.07,2.76-4.32a.49.49,0,0,1,.46-.52.5.5,0,0,1,.41.2c4.42,5.29,6.19,12.34,5.83,19.12Zm-.1,0c0-6.66-2.65-13.17-6.5-18.52l.87-.32c.11,2.8-.17,6-3.84,5-.75-.16-1.61-.44-1.95.1-1.25,3.19,3.93,4.58,6,5.89a.28.28,0,0,1,.08.39c-.76,1.15-2.68,4.31-.93,5.19a4.87,4.87,0,0,0,2,.35.35.35,0,0,1,.24.1l4,4.52-.17,0c.1-.91.17-1.82.24-2.74Z" transform="translate(-0.21)"/><path class="cls-12" d="M62.54,131.83a29.68,29.68,0,0,1-15.13,14.49c-.1-1.32-.31-5,.64-5.07,1.17,0,3-.06,3-.06s.23-4.51,1.51-5.64,3,.95,4.42.23,3.59-4.27,3.59-4.27Z" transform="translate(-0.21)"/><path class="cls-2" d="M62.58,131.81c-2.43,7-8.48,11.82-15.1,14.67a.18.18,0,0,1-.25-.14,19.47,19.47,0,0,1-.11-4.25c.08-.53.34-1.26,1.06-1.24l2.87-.13-.46.44c.22-2.06.14-4.57,1.78-6.13,1.28-1,2.91.51,4.12.43,1.66-.6,2.82-2.67,3.92-4.05a.17.17,0,0,1,.2-.09l2,.49Zm-.08,0-2-.15.2-.09c-1.07,1.7-2,4-4.11,4.75a4.26,4.26,0,0,1-2.2-.41c-.63-.23-1.15-.32-1.44-.06-1.16,1.3-1.25,3.61-1.48,5.34a.46.46,0,0,1-.46.42h-3c-.7,1.15-.49,3.26-.49,4.66l-.25-.15c6.56-2.7,11.47-8.41,15.16-14.3Z" transform="translate(-0.21)"/><path class="cls-2" d="M40.43,93.06a21.92,21.92,0,0,1,5,1.84,22.54,22.54,0,0,1,2.17,1.29c.37.25.74.5,1.1.77a4.05,4.05,0,0,0,1,.67.2.2,0,0,0,.22-.29,2.7,2.7,0,0,0-.84-.77c-.35-.27-.72-.53-1.1-.77a21.76,21.76,0,0,0-2.42-1.32,23.59,23.59,0,0,0-5-1.74c-.21,0-.3.27-.09.32Z" transform="translate(-0.21)"/><path class="cls-2" d="M20.61,139.8a21.49,21.49,0,0,0,6.48,3.52,15.65,15.65,0,0,0,7.32.92c.23,0,.14-.35-.06-.37-1.17-.15-2.36-.17-3.53-.33a20.71,20.71,0,0,1-3.57-.8,22,22,0,0,1-6.41-3.24c-.17-.12-.39.16-.23.3Z" transform="translate(-0.21)"/><path class="cls-2" d="M40.57,162.12a9.78,9.78,0,0,1,3.85,1.34A11.54,11.54,0,0,1,46,164.62c.26.23.5.48.74.73a2.14,2.14,0,0,0,.72.62.28.28,0,0,0,.34-.26,1.64,1.64,0,0,0-.51-.84,7,7,0,0,0-.79-.75,9.8,9.8,0,0,0-1.82-1.25,10.78,10.78,0,0,0-4.14-1.19c-.29,0-.28.41,0,.44Z" transform="translate(-0.21)"/><path class="cls-2" d="M25.91,166.09a10.45,10.45,0,0,1,4.44-2.33c.23,0,.92-.13.83-.51s-.76-.18-1-.11a9.45,9.45,0,0,0-2.28.94,10.24,10.24,0,0,0-2.23,1.76c-.16.16.08.4.25.25Z" transform="translate(-0.21)"/><path class="cls-2" d="M205,80.33c0,2.82,0,5.65.13,8.47a73,73,0,0,0,.46,8.23c0,.11.18.08.18,0,.05-2.77-.23-5.56-.34-8.33s-.16-5.56-.18-8.34c0-.15-.25-.15-.25,0Z" transform="translate(-0.21)"/><path class="cls-2" d="M203.22,95.33l.06,1.5,0,.72c0,.24,0,.57.19.74a.18.18,0,0,0,.25,0c.18-.19.13-.5.12-.74l-.05-.72-.11-1.5c0-.31-.5-.32-.49,0Z" transform="translate(-0.21)"/><path class="cls-2" d="M205.57,120.5c-.08,2.67-.17,5.33-.25,8,0,1.31-.06,2.63-.09,3.94a36.66,36.66,0,0,0,0,4.06.31.31,0,0,0,.62,0,37,37,0,0,0,.12-3.94c0-1.35.06-2.71.07-4.06,0-2.67.05-5.33.08-8a.26.26,0,0,0-.51,0Z" transform="translate(-0.21)"/><path class="cls-2" d="M225.59,165.51a108.6,108.6,0,0,1-14.09-.13c-2.4-.18-4.8-.44-7.18-.79s-4.62-.88-6.95-1.21c-.37,0-.55.48-.16.59a50.68,50.68,0,0,0,7,1.23q3.49.47,7,.69a99.47,99.47,0,0,0,14.34-.11c.17,0,.17-.28,0-.27Z" transform="translate(-0.21)"/><path class="cls-2" d="M164.4,160.74a12.23,12.23,0,0,0-2.29-5.18,8.82,8.82,0,0,0-4.7-3.06c-2-.59-4.14-.84-6.14-1.54a24.89,24.89,0,0,1-5.49-2.73,25.82,25.82,0,0,1-5.32-4.74c-.34-.41-.91.18-.58.58a25.16,25.16,0,0,0,9.47,6.88,31.39,31.39,0,0,0,5.78,1.69c2,.41,4.08.9,5.61,2.36s2.29,3.82,3.07,5.91a.31.31,0,0,0,.59-.17Z" transform="translate(-0.21)"/><path class="cls-2" d="M152.27,75c-5-.55-9.59,2.6-13.76,4.93a.21.21,0,0,0,.21.37c4.11-2.31,8.6-5.48,13.55-5.1.13,0,.13-.19,0-.2Z" transform="translate(-0.21)"/><path class="cls-2" d="M140,102.46q-.6,2.4-1.4,4.73c-.54,1.56-1.24,3-1.81,4.59-.07.18.22.3.31.13a34.78,34.78,0,0,0,1.73-4.56q.8-2.38,1.38-4.83c0-.13-.18-.19-.21-.06Z" transform="translate(-0.21)"/><path class="cls-2" d="M136,107.59l-.67,1.53-.34.76a5.57,5.57,0,0,0-.32.76.16.16,0,0,0,.3.12,5,5,0,0,0,.33-.75l.32-.77.63-1.54c.06-.14-.18-.25-.25-.11Z" transform="translate(-0.21)"/><path class="cls-2" d="M116.38,72c-1,2.31-2.07,4.6-3.2,6.86-.55,1.11-1.1,2.23-1.67,3.33-.29.58-.59,1.14-.89,1.71a6.5,6.5,0,0,0-.7,1.57.12.12,0,0,0,.19.12,13,13,0,0,0,1.79-3.17c.58-1.14,1.15-2.29,1.69-3.46,1.06-2.26,2.06-4.55,3-6.86,0-.13-.17-.23-.23-.1Z" transform="translate(-0.21)"/><path class="cls-2" d="M131,62c.07,1.8.08,3.61,0,5.42s-.08,3.61-.24,5.4c0,.15.23.19.26,0a38.29,38.29,0,0,0,.61-5.34,44.23,44.23,0,0,0-.22-5.52c0-.27-.44-.28-.43,0Z" transform="translate(-0.21)"/><path class="cls-2" d="M74.71,52.26a5.08,5.08,0,0,0-2.27,2.52c-.62,1.29-1.13,2.64-1.64,4a25.13,25.13,0,0,0-1.27,4.4c-.14.75-.14,1.52-.3,2.26a13.36,13.36,0,0,1-.8,2.22c-.08.2.23.31.33.14A10.31,10.31,0,0,0,70.24,64a30.7,30.7,0,0,1,1.13-4.31c.45-1.34,1-2.66,1.49-4a7.38,7.38,0,0,1,2-3.16c.16-.13,0-.34-.2-.26Z" transform="translate(-0.21)"/><path class="cls-2" d="M71,100.93A6.45,6.45,0,0,1,69.76,99,6.55,6.55,0,0,1,69.39,98,4,4,0,0,0,69,96.9a.22.22,0,0,0-.4,0,2.07,2.07,0,0,0,.07,1.23,5.72,5.72,0,0,0,.44,1.17,7,7,0,0,0,1.46,2,.27.27,0,0,0,.39-.38Z" transform="translate(-0.21)"/><path class="cls-2" d="M106.76,54a0,0,0,1,0,0,0,0,0,0,1,0,0,0Z" transform="translate(-0.21)"/><path class="cls-2" d="M106.53,54a5.59,5.59,0,0,0-.18,1.63l-.06,1.84c0,1.15,0,2.3,0,3.44,0,2.38.08,4.75.2,7.13,0,.44.72.44.69,0-.11-2.38-.19-4.75-.22-7.13,0-1.14,0-2.29-.05-3.44,0-.57,0-1.14,0-1.72a6.05,6.05,0,0,0-.11-1.75.12.12,0,0,0-.22,0Z" transform="translate(-0.21)"/><path class="cls-2" d="M102.08,53c0,2.74.27,5.47.36,8.21,0,1.32.07,2.65.09,4,0,.71,0,1.41,0,2.12a8.3,8.3,0,0,0,.07,1.93.25.25,0,0,0,.48,0,7.8,7.8,0,0,0,.08-1.81V65.3c0-1.36,0-2.73-.07-4.1-.08-2.73-.15-5.5-.49-8.21,0-.33-.53-.35-.53,0Z" transform="translate(-0.21)"/><path class="cls-2" d="M106.68,67.76l-.1,0a.41.41,0,0,0-.17,0l-.21.12a4.32,4.32,0,0,1-.45.19,3.44,3.44,0,0,1-1,.21,3.3,3.3,0,0,1-.94,0,8.1,8.1,0,0,1-1-.3c-.41-.13-.61.43-.28.66a2.83,2.83,0,0,0,1.1.38,4.59,4.59,0,0,0,1.17,0,4.18,4.18,0,0,0,1.11-.26,2.81,2.81,0,0,0,.55-.27,1.82,1.82,0,0,0,.23-.15.37.37,0,0,0,.13-.12s0-.13,0-.17a.21.21,0,0,0-.24-.31Z" transform="translate(-0.21)"/><path class="cls-2" d="M105.17,66.43v0h0l0-.16s0,0,0-.08a.37.37,0,0,0,0-.15.39.39,0,0,0-.08-.14l0-.06h0a.39.39,0,0,0-.19-.12.37.37,0,0,0-.23-.05l-.15,0a.61.61,0,0,0-.26.15h0l-.1.12a.48.48,0,0,0-.07.23.43.43,0,0,0,0,.16c0,.05,0,.06,0,.09v0l.06.14a.41.41,0,0,0,.15.17.33.33,0,0,0,.13.07.46.46,0,0,0,.23.06l.16,0,.14-.06a.35.35,0,0,0,.17-.15.44.44,0,0,0,.11-.2Z" transform="translate(-0.21)"/><path class="cls-2" d="M105.38,63l0-.11a.53.53,0,0,1,0-.12l-.06.13,0,0-.32.24h0a.53.53,0,0,0,.21-.11.61.61,0,0,0,.15-.17l.06-.15a.58.58,0,0,0,0-.32.5.5,0,0,0,0-.12l-.06-.14a.38.38,0,0,0-.15-.16.29.29,0,0,0-.13-.08.54.54,0,0,0-.22,0l-.16,0-.14.05a.41.41,0,0,0-.16.16.37.37,0,0,0-.11.19s0,.08,0,.12a.39.39,0,0,0,0,.24.48.48,0,0,0,.07.23l.1.12a.63.63,0,0,0,.26.16h0l-.32-.24,0,0,0-.13s0,.08,0,.12l0,.11,0,.11a.37.37,0,0,0,.12.13.21.21,0,0,0,.1.06.31.31,0,0,0,.19,0,.53.53,0,0,0,.24-.06.49.49,0,0,0,.13-.12.35.35,0,0,0,.08-.16Z" transform="translate(-0.21)"/><path class="cls-2" d="M104.76,57.74l-.14,0-.14.06a.61.61,0,0,0-.17.15.27.27,0,0,0-.07.13.42.42,0,0,0,0,.22l0,.16.06.14a.57.57,0,0,0,.15.16.47.47,0,0,0,.2.1l.14,0a.62.62,0,0,0,.33,0,.63.63,0,0,0,.27-.16l.09-.12a.59.59,0,0,0,.09-.31.46.46,0,0,0-.06-.23.41.41,0,0,0-.12-.2.63.63,0,0,0-.27-.16.62.62,0,0,0-.33,0Z" transform="translate(-0.21)"/><path class="cls-2" d="M131.69,20.73c.66-.69.3-2,0-2.74a6.37,6.37,0,0,0-1.6-2.15,7.52,7.52,0,0,0-2.22-1.34,3.64,3.64,0,0,0-2.53-.2.26.26,0,0,0,0,.45,4.23,4.23,0,0,0,1.06.27,6.93,6.93,0,0,1,1.1.32,5.92,5.92,0,0,1,3.28,2.83,4,4,0,0,1,.4,1.16c.08.43,0,.85.08,1.27a.28.28,0,0,0,.47.13Z" transform="translate(-0.21)"/><path class="cls-2" d="M97.28,11.81a8.55,8.55,0,0,0-2.74,4.93,14.26,14.26,0,0,0-.22,3.39,15.19,15.19,0,0,0,.5,3.62.15.15,0,0,0,.3,0c.08-1.14-.1-2.32-.13-3.47A15.88,15.88,0,0,1,95.16,17a8.56,8.56,0,0,1,2.4-4.92c.19-.17-.09-.44-.28-.28Z" transform="translate(-0.21)"/><path class="cls-2" d="M97.46,19.08a7.45,7.45,0,0,0-.4,1.74,8.14,8.14,0,0,0,0,.86c0,.28,0,.75.26.9a.3.3,0,0,0,.35,0c.23-.18.13-.6.12-.85a7.63,7.63,0,0,1,0-.83A9.74,9.74,0,0,1,98,19.23a.29.29,0,0,0-.55-.15Z" transform="translate(-0.21)"/><path class="cls-2" d="M155.93,50.53q-3.75.22-7.5.29c-1.23,0-2.46,0-3.69,0a30.26,30.26,0,0,0-3.81,0c-.11,0-.17.19,0,.22a23.06,23.06,0,0,0,3.72.15c1.23,0,2.46,0,3.69,0,2.54-.06,5.08-.19,7.62-.36.19,0,.19-.32,0-.31Z" transform="translate(-0.21)"/><path class="cls-2" d="M39.81,122.58l-1.44-.93-.71-.46a3.59,3.59,0,0,0-.73-.43.11.11,0,0,0-.1.18,3.21,3.21,0,0,0,.68.45l.74.45,1.47.9c.1.06.19-.1.09-.16Z" transform="translate(-0.21)"/></g></g></svg>